<?xml version="1.0" encoding="UTF-8"?>
<svg xmlns="http://www.w3.org/2000/svg" xmlns:xlink="http://www.w3.org/1999/xlink" width="178px" height="66px" viewBox="0 0 176 66" version="1.1">
<g id="surface1">
<path style=" stroke:none;fill-rule:nonzero;fill:rgb(0%,0%,0%);fill-opacity:1;" d="M 52.925781 2.445312 C 53.109375 3.980469 51.222656 5.605469 47.730469 6.902344 C 44.671875 8.039062 40.695312 9.023438 32.628906 10.609375 C 24.074219 12.304688 21.589844 12.84375 18.90625 13.605469 C 16.132812 14.390625 14.007812 15.265625 13.175781 15.949219 L 12.863281 16.214844 L 13.648438 15.976562 C 16.355469 15.140625 18.953125 14.601562 24.921875 13.679688 C 34.40625 12.195312 37.472656 11.621094 41.390625 10.597656 C 42.171875 10.398438 42.929688 10.195312 43.066406 10.160156 C 43.851562 9.960938 42.695312 10.421875 40.894531 11.035156 C 36.28125 12.59375 32.117188 13.617188 25.230469 14.902344 C 18.53125 16.152344 17.722656 16.335938 15.078125 17.210938 C 9.109375 19.195312 4.746094 22.230469 2.523438 25.960938 C -0.335938 30.742188 0.90625 36.058594 5.953125 40.589844 C 6.464844 41.0625 6.9375 41.4375 6.984375 41.4375 C 7.035156 41.4375 6.972656 41.25 6.835938 41.039062 C 5.804688 39.351562 5.855469 36.632812 6.972656 34.222656 C 8.140625 31.691406 9.992188 29.929688 13.136719 28.34375 C 15.734375 27.046875 17.675781 26.460938 25.605469 24.648438 C 31.261719 23.363281 36.144531 22.015625 40.769531 20.46875 C 47.394531 18.273438 51.816406 15.988281 54.292969 13.515625 L 55.324219 12.480469 L 54.988281 13.105469 C 54.492188 14.015625 53.445312 15.238281 52.414062 16.101562 C 49.730469 18.371094 45.777344 20.542969 37.289062 24.4375 C 31.644531 27.035156 29.046875 28.269531 26.785156 29.441406 C 20.992188 32.464844 17.3125 35.007812 14.542969 37.894531 C 13.011719 39.488281 12.132812 40.738281 11.359375 42.359375 C 10.578125 44.035156 10.304688 45.179688 10.230469 47.117188 C 10.128906 49.800781 10.75 52.082031 12.167969 54.242188 C 15.25 58.9375 22.234375 62.105469 31.945312 63.203125 C 33.660156 63.402344 37.375 63.667969 38.15625 63.640625 L 38.59375 63.628906 L 38.15625 63.503906 C 33.597656 62.207031 30.351562 60.519531 28.089844 58.273438 C 26.648438 56.828125 25.195312 54.34375 24.609375 52.296875 C 24.335938 51.347656 24.101562 48.425781 24.300781 48.425781 C 24.347656 48.425781 24.957031 48.976562 25.652344 49.648438 C 29.160156 53.007812 34.292969 56.289062 37.996094 57.511719 C 39.984375 58.175781 41.015625 58.335938 43.191406 58.335938 C 44.644531 58.335938 45.464844 58.273438 46.226562 58.113281 C 50.128906 57.277344 54.675781 54.792969 59.140625 51.074219 C 61.550781 49.0625 64.507812 45.753906 65.714844 43.683594 C 66.011719 43.183594 65.875 43.285156 64.621094 44.484375 C 60.132812 48.800781 55.722656 51.984375 51.296875 54.105469 C 44.894531 57.175781 40.679688 57.039062 33.996094 53.554688 C 31.234375 52.121094 28.75 50.460938 25.890625 48.152344 C 24.300781 46.867188 24.363281 47.066406 25.007812 45.429688 C 25.941406 43.046875 27.753906 40.699219 30.578125 38.265625 C 32.664062 36.46875 36.480469 33.6875 41.453125 30.328125 C 49.480469 24.925781 53.222656 22.128906 55 20.207031 C 56.691406 18.359375 58.082031 16.039062 58.617188 14.105469 C 58.964844 12.855469 58.941406 10.234375 58.566406 8.949219 C 58.019531 7.027344 56.925781 5.21875 55.433594 3.71875 C 54.578125 2.871094 53.359375 1.996094 53.011719 1.996094 C 52.925781 1.996094 52.898438 2.183594 52.925781 2.445312 Z M 52.925781 2.445312 "/>
<path style=" stroke:none;fill-rule:nonzero;fill:rgb(0%,0%,0%);fill-opacity:1;" d="M 65.441406 25.097656 C 64.296875 26.558594 62.222656 27.882812 60.15625 28.457031 C 59.648438 28.59375 58.542969 28.78125 57.695312 28.855469 C 55.84375 29.03125 53.445312 28.855469 51.382812 28.394531 C 49.816406 28.03125 49.753906 28.03125 50.339844 28.28125 C 51.195312 28.667969 53.210938 29.332031 54.21875 29.542969 C 55.707031 29.867188 59.847656 29.855469 61.089844 29.53125 C 61.574219 29.40625 62.742188 29.230469 63.699219 29.144531 C 65.640625 28.96875 66.859375 28.707031 67.839844 28.246094 C 68.621094 27.871094 68.636719 27.757812 67.851562 28.019531 C 67.167969 28.246094 65.589844 28.457031 64.609375 28.457031 L 63.851562 28.457031 L 64.472656 27.796875 C 65.15625 27.070312 65.703125 26.023438 65.863281 25.113281 C 65.925781 24.789062 65.960938 24.511719 65.949219 24.5 C 65.9375 24.488281 65.703125 24.75 65.441406 25.097656 Z M 65.441406 25.097656 "/>
<path style=" stroke:none;fill-rule:nonzero;fill:rgb(0%,0%,0%);fill-opacity:1;" d="M 120.8125 26.199219 C 119.957031 26.472656 119.546875 26.722656 118.789062 27.445312 C 117.992188 28.207031 117.421875 29.253906 117.011719 30.714844 L 116.675781 31.925781 L 115.917969 31.976562 C 114.960938 32.050781 114.152344 32.425781 113.269531 33.238281 C 111.292969 35.058594 109.886719 38.652344 110.546875 40.226562 C 111.117188 41.585938 112.609375 41.363281 114.425781 39.664062 C 115.097656 39.027344 115.246094 38.941406 115.171875 39.191406 C 115.121094 39.367188 115.019531 39.800781 114.933594 40.164062 C 114.796875 40.777344 114.808594 40.851562 115.035156 41.011719 C 115.15625 41.113281 115.355469 41.1875 115.480469 41.1875 C 115.84375 41.1875 117.371094 40.339844 118.191406 39.675781 C 118.886719 39.101562 118.949219 39.015625 118.789062 38.855469 C 118.625 38.679688 118.527344 38.714844 117.941406 39.164062 C 116.972656 39.890625 116.585938 39.914062 116.585938 39.242188 C 116.585938 38.828125 118.601562 30.015625 119.011719 28.605469 C 119.246094 27.84375 119.632812 27.359375 120.066406 27.308594 C 120.242188 27.296875 120.839844 27.320312 121.410156 27.382812 C 122.589844 27.496094 123.050781 27.332031 123.050781 26.773438 C 123.050781 25.984375 122.15625 25.761719 120.8125 26.199219 Z M 116.289062 33.175781 C 116.390625 33.238281 116.328125 33.6875 116.089844 34.699219 C 115.492188 37.304688 115.28125 37.855469 114.597656 38.605469 C 113.59375 39.703125 112.832031 39.953125 112.273438 39.339844 C 111.976562 39.027344 111.964844 38.941406 112.027344 38.066406 C 112.1875 35.90625 113.46875 33.4375 114.636719 33.085938 C 115.035156 32.960938 116.027344 33.023438 116.289062 33.175781 Z M 116.289062 33.175781 "/>
<path style=" stroke:none;fill-rule:nonzero;fill:rgb(0%,0%,0%);fill-opacity:1;" d="M 162.515625 26.074219 C 161.371094 26.359375 160.140625 27.246094 159.507812 28.257812 C 159.058594 28.957031 158.808594 29.765625 157.902344 33.386719 C 156.164062 40.363281 156.101562 41.0625 157.332031 41.0625 C 157.925781 41.0625 159.109375 40.363281 160.175781 39.390625 C 160.898438 38.730469 160.960938 38.640625 160.785156 38.453125 C 160.613281 38.28125 160.550781 38.304688 160.191406 38.652344 C 159.570312 39.242188 158.449219 39.953125 158.238281 39.914062 C 158.089844 39.878906 158.039062 39.738281 158.0625 39.378906 C 158.089844 38.804688 160.402344 29.019531 160.6875 28.269531 C 161.046875 27.308594 161.097656 27.296875 162.636719 27.382812 C 164.203125 27.472656 164.566406 27.347656 164.566406 26.710938 C 164.566406 26.058594 163.695312 25.785156 162.515625 26.074219 Z M 162.515625 26.074219 "/>
<path style=" stroke:none;fill-rule:nonzero;fill:rgb(0%,0%,0%);fill-opacity:1;" d="M 90.136719 26.734375 C 90.050781 26.820312 89.988281 27.144531 89.988281 27.472656 C 89.988281 27.957031 89.925781 28.105469 89.664062 28.320312 C 89.253906 28.644531 88.820312 28.644531 86.757812 28.382812 C 84.65625 28.105469 82.457031 28.105469 81.425781 28.382812 C 79.710938 28.84375 78.417969 29.867188 77.734375 31.289062 C 77.421875 31.925781 77.371094 32.164062 77.371094 33.164062 C 77.371094 34.136719 77.410156 34.359375 77.632812 34.660156 C 78.007812 35.160156 78.480469 35.308594 78.800781 35.007812 C 79.164062 34.683594 79.113281 34.199219 78.664062 33.660156 C 77.957031 32.800781 78.070312 31.652344 78.953125 30.640625 C 79.820312 29.65625 80.714844 29.34375 82.917969 29.242188 L 84.496094 29.167969 L 83.625 32.714844 C 81.882812 39.890625 81.835938 40 80.394531 40.339844 C 79.882812 40.453125 79.671875 40.601562 79.671875 40.886719 C 79.671875 40.988281 79.871094 40.988281 80.332031 40.914062 C 80.679688 40.851562 81.910156 40.839844 83.039062 40.886719 C 85.378906 40.976562 85.824219 40.925781 85.9375 40.527344 C 85.972656 40.390625 85.988281 40.25 85.972656 40.238281 C 85.960938 40.226562 85.636719 40.265625 85.265625 40.3125 C 84.894531 40.363281 84.308594 40.375 83.984375 40.339844 C 83.402344 40.277344 83.390625 40.277344 83.464844 39.890625 C 83.5 39.675781 84.097656 37.21875 84.792969 34.433594 L 86.0625 29.355469 L 87.738281 29.304688 C 89.578125 29.253906 90.261719 29.054688 90.832031 28.433594 C 91.480469 27.71875 91.355469 26.585938 90.636719 26.585938 C 90.449219 26.585938 90.226562 26.648438 90.136719 26.734375 Z M 90.136719 26.734375 "/>
<path style=" stroke:none;fill-rule:nonzero;fill:rgb(0%,0%,0%);fill-opacity:1;" d="M 92.277344 27.519531 C 91.902344 27.671875 91.605469 28.144531 91.605469 28.582031 C 91.605469 28.917969 92.039062 29.332031 92.375 29.332031 C 92.835938 29.332031 93.34375 28.730469 93.34375 28.195312 C 93.34375 27.535156 92.910156 27.246094 92.277344 27.519531 Z M 92.277344 27.519531 "/>
<path style=" stroke:none;fill-rule:nonzero;fill:rgb(0%,0%,0%);fill-opacity:1;" d="M 167.363281 28.980469 C 166.054688 30.804688 166.117188 30.703125 166.453125 30.703125 C 166.691406 30.703125 169.050781 28.832031 170.15625 27.757812 C 170.308594 27.609375 170.195312 27.582031 169.335938 27.582031 L 168.34375 27.582031 Z M 167.363281 28.980469 "/>
<path style=" stroke:none;fill-rule:nonzero;fill:rgb(0%,0%,0%);fill-opacity:1;" d="M 140.988281 28.269531 C 139.234375 28.820312 137.804688 30.480469 136.984375 32.898438 C 136.847656 33.300781 136.460938 34.746094 136.113281 36.09375 C 135.257812 39.488281 135.019531 39.902344 133.777344 40.265625 C 133.417969 40.363281 133.117188 40.5 133.117188 40.5625 C 133.117188 40.625 133.09375 40.75 133.054688 40.839844 C 132.996094 40.988281 133.105469 41 133.640625 40.925781 C 134.683594 40.777344 136.5 40.800781 138.773438 41 C 142.367188 41.3125 143.074219 41.25 143.894531 40.527344 C 144.925781 39.613281 144.953125 37.941406 143.917969 37.941406 C 143.433594 37.941406 143.222656 38.367188 143.421875 38.953125 C 143.621094 39.539062 143.597656 39.902344 143.296875 40.203125 C 142.988281 40.511719 142.441406 40.488281 140.515625 40.0625 C 139.496094 39.839844 139.058594 39.800781 138.089844 39.863281 C 137.445312 39.914062 136.761719 39.976562 136.574219 40.015625 L 136.238281 40.089844 L 136.648438 39.242188 C 136.882812 38.765625 137.269531 37.617188 137.519531 36.695312 C 138.875 31.675781 139.285156 30.578125 140.089844 29.65625 C 140.6875 28.96875 141.199219 28.769531 141.769531 29.019531 C 142.019531 29.117188 142.414062 29.367188 142.640625 29.582031 C 143.285156 30.140625 143.96875 30.054688 143.96875 29.40625 C 143.96875 28.980469 143.632812 28.605469 143 28.320312 C 142.414062 28.046875 141.71875 28.03125 140.988281 28.269531 Z M 140.988281 28.269531 "/>
<path style=" stroke:none;fill-rule:nonzero;fill:rgb(0%,0%,0%);fill-opacity:1;" d="M 127.5625 31.675781 C 127.402344 31.703125 127.203125 31.828125 127.101562 31.976562 C 126.980469 32.152344 126.855469 32.203125 126.667969 32.140625 C 126.257812 32.015625 124.554688 32.300781 123.933594 32.613281 C 123.199219 32.976562 121.90625 34.199219 121.285156 35.109375 C 119.992188 37.019531 119.507812 39.054688 120.054688 40.277344 C 120.355469 40.925781 120.6875 41.113281 121.460938 41.039062 C 122.132812 40.964844 123.027344 40.425781 124.082031 39.453125 C 124.730469 38.855469 124.753906 38.878906 124.46875 39.726562 C 124.367188 40.039062 124.292969 40.453125 124.320312 40.652344 C 124.355469 40.964844 124.40625 41 124.878906 41.039062 C 125.609375 41.085938 126.605469 40.5625 127.8125 39.488281 C 128.332031 39.027344 128.371094 38.953125 128.210938 38.742188 C 128.046875 38.515625 128.035156 38.515625 127.6875 38.828125 C 127.226562 39.265625 126.519531 39.691406 126.257812 39.691406 C 126.082031 39.691406 126.035156 39.589844 126.035156 39.277344 C 126.035156 38.667969 126.691406 35.832031 127.339844 33.636719 C 127.648438 32.5625 127.898438 31.664062 127.875 31.652344 C 127.847656 31.640625 127.710938 31.652344 127.5625 31.675781 Z M 125.910156 33.398438 C 125.910156 33.699219 124.804688 37.394531 124.59375 37.84375 C 124.070312 38.890625 123.0625 39.691406 122.253906 39.691406 C 121.199219 39.691406 121.148438 37.554688 122.15625 35.410156 C 122.777344 34.074219 123.386719 33.523438 124.441406 33.347656 C 124.941406 33.261719 125.910156 33.300781 125.910156 33.398438 Z M 125.910156 33.398438 "/>
<path style=" stroke:none;fill-rule:nonzero;fill:rgb(0%,0%,0%);fill-opacity:1;" d="M 90.859375 32 C 90.199219 32.175781 89.527344 32.601562 88.683594 33.363281 C 88.097656 33.898438 88.074219 33.9375 88.273438 34.148438 C 88.472656 34.347656 88.523438 34.324219 89.15625 33.773438 C 89.527344 33.460938 89.953125 33.199219 90.113281 33.199219 C 90.460938 33.199219 90.449219 33.285156 89.753906 35.660156 C 88.757812 39.066406 88.546875 40.464844 88.96875 40.851562 C 89.527344 41.363281 90.4375 41 92.027344 39.613281 C 92.671875 39.054688 92.710938 39.003906 92.523438 38.792969 C 92.324219 38.578125 92.289062 38.605469 91.742188 39.078125 C 91.429688 39.367188 91.019531 39.664062 90.820312 39.765625 C 90.511719 39.925781 90.472656 39.925781 90.398438 39.738281 C 90.285156 39.441406 90.523438 38.378906 91.367188 35.394531 C 92.214844 32.425781 92.238281 32.125 91.777344 31.953125 C 91.605469 31.875 91.457031 31.828125 91.441406 31.839844 C 91.429688 31.839844 91.167969 31.914062 90.859375 32 Z M 90.859375 32 "/>
<path style=" stroke:none;fill-rule:nonzero;fill:rgb(0%,0%,0%);fill-opacity:1;" d="M 96.972656 32.203125 C 96.167969 32.5625 95.621094 33.050781 95.023438 33.875 C 93.257812 36.394531 92.6875 39.753906 93.867188 40.75 C 94.648438 41.414062 96.242188 41 98.003906 39.652344 C 99.085938 38.839844 99.222656 38.667969 99.023438 38.390625 C 98.863281 38.179688 98.824219 38.191406 98.242188 38.605469 C 96.9375 39.539062 95.855469 39.914062 95.382812 39.589844 C 95.121094 39.414062 94.960938 38.953125 94.960938 38.390625 C 94.960938 37.441406 95.085938 37.28125 96.226562 36.769531 C 98.140625 35.882812 99.1875 35.109375 99.570312 34.261719 C 99.980469 33.363281 99.820312 32.464844 99.175781 32.125 C 98.6875 31.875 97.609375 31.914062 96.972656 32.203125 Z M 97.980469 33.039062 C 98.738281 33.886719 98.03125 35.070312 96.128906 36.144531 C 95.71875 36.382812 95.332031 36.570312 95.285156 36.570312 C 95.058594 36.570312 95.769531 34.347656 96.214844 33.625 C 96.664062 32.886719 97.570312 32.589844 97.980469 33.039062 Z M 97.980469 33.039062 "/>
<path style=" stroke:none;fill-rule:nonzero;fill:rgb(0%,0%,0%);fill-opacity:1;" d="M 102.839844 32.324219 C 102.441406 32.527344 101.773438 33 101.363281 33.363281 C 100.703125 33.960938 100.640625 34.0625 100.789062 34.25 C 100.9375 34.433594 101 34.410156 101.484375 33.960938 C 102.242188 33.25 102.652344 33.011719 102.804688 33.164062 C 102.941406 33.300781 102.566406 35.109375 101.597656 38.964844 C 101.363281 39.902344 101.175781 40.714844 101.175781 40.75 C 101.175781 40.789062 101.523438 40.8125 101.945312 40.789062 L 102.714844 40.75 L 103.25 38.480469 C 103.535156 37.230469 103.882812 35.996094 104.019531 35.734375 C 104.554688 34.699219 106.382812 33.25 107.054688 33.347656 C 107.441406 33.398438 107.390625 33.875 106.832031 35.820312 C 105.835938 39.214844 105.699219 40.214844 106.097656 40.800781 C 106.421875 41.261719 107.179688 41.113281 108.160156 40.402344 C 109.292969 39.589844 109.800781 39.015625 109.664062 38.753906 C 109.550781 38.566406 109.464844 38.617188 108.90625 39.117188 C 108.136719 39.789062 107.8125 39.976562 107.550781 39.890625 C 107.253906 39.777344 107.414062 38.902344 108.210938 36.28125 C 109.003906 33.6875 109.167969 32.589844 108.820312 32.203125 C 108.234375 31.550781 106.621094 32.261719 104.878906 33.921875 C 104.480469 34.296875 104.15625 34.558594 104.15625 34.496094 C 104.171875 34.433594 104.269531 33.910156 104.394531 33.324219 C 104.507812 32.738281 104.59375 32.1875 104.554688 32.101562 C 104.46875 31.828125 103.597656 31.9375 102.839844 32.324219 Z M 102.839844 32.324219 "/>
<path style=" stroke:none;fill-rule:nonzero;fill:rgb(0%,0%,0%);fill-opacity:1;" d="M 148.582031 32.261719 C 148.246094 32.425781 147.585938 32.886719 147.113281 33.273438 C 146.34375 33.910156 146.28125 34 146.457031 34.171875 C 146.628906 34.347656 146.703125 34.324219 147.1875 33.921875 C 147.761719 33.449219 148.183594 33.199219 148.394531 33.199219 C 148.65625 33.199219 148.519531 34.0625 147.859375 36.570312 C 147.488281 37.980469 147.140625 39.378906 147.101562 39.691406 C 146.941406 40.789062 147.4375 41.324219 148.355469 41.074219 C 148.992188 40.902344 150.222656 40.164062 151.03125 39.453125 L 151.664062 38.902344 L 151.578125 39.703125 C 151.5 40.414062 151.527344 40.539062 151.761719 40.851562 C 151.910156 41.039062 152.148438 41.1875 152.296875 41.1875 C 152.757812 41.1875 153.550781 40.714844 154.535156 39.851562 C 155.464844 39.054688 155.492188 39.015625 155.28125 38.792969 C 155.070312 38.554688 155.070312 38.554688 154.871094 38.804688 C 154.535156 39.242188 153.601562 39.941406 153.367188 39.941406 C 152.90625 39.941406 153.003906 39.328125 154.261719 34.746094 C 154.597656 33.5 154.871094 32.425781 154.871094 32.339844 C 154.871094 32.25 154.597656 32.203125 154.148438 32.203125 L 153.414062 32.203125 L 152.78125 34.636719 C 152.085938 37.304688 151.75 38.003906 150.757812 38.867188 C 150.035156 39.476562 149.585938 39.714844 149.175781 39.664062 C 148.65625 39.601562 148.691406 39.179688 149.464844 36.082031 C 150.148438 33.273438 150.269531 32.375 149.996094 32.101562 C 149.761719 31.863281 149.253906 31.925781 148.582031 32.261719 Z M 148.582031 32.261719 "/>
<path style=" stroke:none;fill-rule:nonzero;fill:rgb(0%,0%,0%);fill-opacity:1;" d="M 163.757812 32.1875 C 163.308594 32.386719 161.332031 33.875 161.332031 34.011719 C 161.332031 34.035156 161.445312 34.125 161.59375 34.199219 C 161.804688 34.324219 161.917969 34.273438 162.339844 33.886719 C 162.835938 33.4375 163.421875 33.136719 163.546875 33.261719 C 163.695312 33.410156 163.546875 34.210938 162.898438 36.730469 C 162.140625 39.675781 162.042969 40.527344 162.453125 40.9375 C 162.589844 41.074219 162.800781 41.1875 162.9375 41.1875 C 163.632812 41.1875 165.148438 40.339844 166.207031 39.339844 C 166.828125 38.753906 166.839844 38.753906 166.753906 39.128906 C 166.617188 39.765625 166.628906 40.5 166.789062 40.789062 C 167.164062 41.5 168.207031 41.148438 169.6875 39.800781 C 170.417969 39.140625 170.507812 39.027344 170.382812 38.816406 C 170.246094 38.605469 170.183594 38.640625 169.5 39.265625 C 168.703125 40.015625 168.269531 40.113281 168.195312 39.589844 C 168.15625 39.328125 168.578125 37.542969 169.585938 33.785156 L 170.019531 32.1875 L 169.25 32.226562 L 168.492188 32.261719 L 167.859375 34.636719 C 167.511719 35.933594 167.125 37.195312 167 37.429688 C 166.492188 38.390625 164.988281 39.691406 164.367188 39.691406 C 163.71875 39.691406 163.71875 39.488281 164.492188 36.371094 C 164.886719 34.761719 165.210938 33.199219 165.222656 32.898438 C 165.261719 31.964844 164.765625 31.726562 163.757812 32.1875 Z M 163.757812 32.1875 "/>
<path style=" stroke:none;fill-rule:nonzero;fill:rgb(0%,0%,0%);fill-opacity:1;" d="M 38.964844 45.355469 C 38.628906 45.457031 37.871094 45.730469 37.289062 45.96875 C 36.703125 46.21875 35.621094 46.566406 34.863281 46.753906 C 34.117188 46.941406 33.398438 47.128906 33.273438 47.167969 C 32.925781 47.289062 38.707031 50.113281 39.9375 50.421875 C 41.339844 50.773438 45.042969 50.773438 46.449219 50.421875 C 47.679688 50.113281 53.457031 47.289062 53.109375 47.167969 C 52.988281 47.128906 52.351562 46.964844 51.707031 46.804688 C 51.058594 46.65625 49.902344 46.28125 49.144531 45.980469 C 46.832031 45.070312 46.089844 45.019531 44.1875 45.679688 C 43.277344 45.992188 43.140625 45.992188 42 45.632812 C 40.78125 45.230469 39.761719 45.144531 38.964844 45.355469 Z M 43.191406 47.328125 C 43.402344 47.339844 44.234375 47.289062 45.054688 47.253906 C 45.875 47.203125 46.882812 47.214844 47.292969 47.277344 L 48.039062 47.402344 L 47.082031 47.414062 C 46.558594 47.414062 45.480469 47.539062 44.671875 47.679688 L 43.203125 47.925781 L 41.726562 47.679688 C 40.90625 47.539062 39.8125 47.414062 39.289062 47.402344 C 38.417969 47.390625 38.394531 47.378906 38.902344 47.289062 C 39.214844 47.242188 40.222656 47.226562 41.140625 47.265625 C 42.0625 47.304688 42.992188 47.328125 43.191406 47.328125 Z M 43.191406 47.328125 "/>
</g>
</svg>
