<?xml version="1.0" standalone="no"?>
<!DOCTYPE svg PUBLIC "-//W3C//DTD SVG 20010904//EN"
 "http://www.w3.org/TR/2001/REC-SVG-20010904/DTD/svg10.dtd">
<svg version="1.0" xmlns="http://www.w3.org/2000/svg"
 width="1164.000000pt" height="1455.000000pt" viewBox="0 0 1164.000000 1455.000000"
 preserveAspectRatio="xMidYMid meet">
<metadata>
Created by potrace 1.16, written by Peter Selinger 2001-2019
</metadata>
<g transform="translate(0.000000,1455.000000) scale(0.100000,-0.100000)"
fill="#000000" stroke="none">
<path d="M8737 14038 c38 -582 -603 -1041 -2122 -1518 -317 -99 -596 -180
-1105 -320 -1181 -325 -1417 -393 -1830 -530 -544 -180 -925 -352 -1174 -529
-88 -62 -196 -158 -228 -203 l-20 -29 82 41 c372 187 869 329 2020 576 1450
312 2081 484 2725 743 222 89 222 81 0 -38 -360 -191 -858 -401 -1430 -603
-386 -136 -674 -220 -1526 -443 -878 -230 -929 -245 -1224 -362 -626 -248
-1150 -585 -1580 -1017 -537 -540 -857 -1176 -952 -1893 -23 -176 -23 -551 1
-723 72 -528 260 -1016 569 -1480 119 -178 282 -385 371 -470 l37 -35 -35 76
c-161 349 -190 819 -80 1319 54 246 173 556 295 767 120 211 212 325 416 523
248 240 472 395 818 565 329 162 522 233 1333 494 847 273 1231 408 1737 609
1372 547 2189 1009 2780 1574 189 181 390 430 467 582 16 32 31 56 34 53 9 -9
-59 -185 -118 -302 -222 -447 -633 -883 -1313 -1394 -372 -280 -747 -533
-1565 -1056 -1045 -669 -1495 -976 -1975 -1346 -572 -441 -1039 -885 -1392
-1324 -466 -579 -768 -1226 -872 -1865 -39 -242 -45 -323 -45 -605 0 -291 12
-441 55 -685 257 -1470 1374 -2443 3224 -2809 382 -76 906 -131 1225 -130
l135 0 -93 24 c-237 61 -561 219 -857 419 -444 299 -787 672 -995 1081 -232
456 -375 938 -420 1410 -11 119 -14 446 -4 482 5 19 22 1 108 -119 533 -742
1294 -1467 1920 -1828 451 -260 896 -349 1352 -269 422 73 850 304 1370 740
826 692 1519 1591 1927 2499 41 91 78 176 82 190 4 14 -32 -31 -80 -100 -550
-783 -1210 -1518 -1815 -2021 -544 -453 -1097 -760 -1505 -835 -153 -29 -482
-26 -624 4 -281 61 -553 184 -916 416 -511 325 -1086 846 -1630 1475 l-148
172 7 50 c12 87 76 326 128 478 225 653 638 1265 1344 1991 88 91 176 182 195
204 55 62 813 793 1219 1177 883 834 1446 1398 1721 1724 480 570 790 1197
898 1815 36 208 45 312 45 545 -1 443 -85 841 -263 1244 -185 418 -517 855
-688 906 -22 6 -23 6 -16 -87z"/>
<path d="M10791 8985 c-243 -455 -601 -751 -1044 -865 -193 -49 -245 -55 -497
-54 -195 0 -257 4 -365 22 -176 30 -411 92 -552 146 -65 25 -118 44 -120 43
-6 -7 212 -135 325 -192 145 -72 273 -121 423 -164 403 -113 867 -96 1211 44
50 20 92 27 207 36 332 23 595 95 765 210 63 42 160 129 144 129 -3 0 -29 -15
-58 -34 -113 -74 -327 -123 -580 -133 l-155 -6 20 24 c11 13 29 35 41 49 88
100 190 317 238 505 26 105 61 323 53 331 -3 3 -28 -38 -56 -91z"/>
<path d="M6310 5620 c0 -102 120 -193 355 -270 55 -18 121 -43 148 -57 26 -13
47 -20 47 -16 0 13 -40 75 -78 121 -88 107 -269 209 -440 246 -31 7 -32 6 -32
-24z"/>
<path d="M7930 5624 c-98 -26 -250 -107 -319 -171 -58 -52 -147 -170 -137
-180 2 -3 22 5 43 15 21 11 84 35 138 52 235 76 365 172 365 270 0 35 -6 36
-90 14z"/>
<path d="M6495 4370 c-33 -11 -96 -40 -140 -66 -319 -187 -476 -255 -783 -341
l-64 -18 149 -97 c82 -54 230 -157 328 -229 250 -184 400 -281 540 -349 215
-104 346 -131 530 -106 96 12 124 12 220 0 219 -29 405 22 685 189 99 59 161
102 362 249 149 109 390 275 463 317 47 28 51 25 -100 66 -209 57 -419 148
-640 279 -193 113 -215 121 -365 121 -136 -1 -161 -8 -385 -109 -58 -26 -94
-36 -130 -36 -36 0 -72 10 -130 36 -205 93 -252 107 -370 111 -89 2 -121 -1
-170 -17z m540 -447 c113 -22 146 -21 270 2 137 26 410 26 549 1 158 -29 155
-35 -18 -35 -221 -1 -357 -23 -633 -103 -37 -11 -51 -9 -145 20 -195 59 -285
73 -513 79 -117 3 -201 9 -189 14 20 7 178 34 254 43 74 9 338 -4 425 -21z"/>
</g>
</svg>
